<svg width="16" height="16" viewBox="0 0 16 16" fill="none" xmlns="http://www.w3.org/2000/svg">
<path fill-rule="evenodd" clip-rule="evenodd" d="M14 16C15.11 16 16 15.11 16 14C16 12.89 15.1 12 14 12C12.9 12 12 12.89 12 14C12 15.11 12.9 16 14 16ZM14 10C15.11 10 16 9.11 16 8C16 6.89 15.1 6 14 6C12.9 6 12 6.89 12 8C12 9.11 12.9 10 14 10ZM14 4C15.11 4 16 3.11 16 2C16 0.89 15.1 0 14 0C12.9 0 12 0.89 12 2C12 3.11 12.9 4 14 4ZM8 16C9.11 16 10 15.11 10 14C10 12.89 9.1 12 8 12C6.9 12 6 12.89 6 14C6 15.11 6.9 16 8 16ZM8 10C9.11 10 10 9.11 10 8C10 6.89 9.1 6 8 6C6.9 6 6 6.89 6 8C6 9.11 6.9 10 8 10ZM8 4C9.11 4 10 3.11 10 2C10 0.89 9.1 0 8 0C6.9 0 6 0.89 6 2C6 3.11 6.9 4 8 4ZM2 16C3.11 16 4 15.11 4 14C4 12.89 3.1 12 2 12C0.9 12 0 12.89 0 14C0 15.11 0.9 16 2 16ZM2 10C3.11 10 4 9.11 4 8C4 6.89 3.1 6 2 6C0.9 6 0 6.89 0 8C0 9.11 0.9 10 2 10ZM2 4C3.11 4 4 3.11 4 2C4 0.89 3.1 0 2 0C0.9 0 0 0.89 0 2C0 3.11 0.9 4 2 4Z" fill="#4264D0"/>
</svg>
