<svg width="23" height="16" viewBox="0 0 23 16" fill="none" xmlns="http://www.w3.org/2000/svg">
<path d="M22.2463 3.208L21.2223 0.944C20.9583 0.376 20.3903 0 19.7823 0H18.3983H11.1983H9.46227H2.63027H2.39827C2.18227 0 1.98227 0.088 1.83827 0.232C1.56627 0.4 1.33427 0.64 1.19027 0.944L0.158274 3.208C-0.0897259 3.744 -0.0417259 4.368 0.270274 4.864C0.566274 5.328 1.06227 5.6 1.59827 5.6V13.464C1.59827 14.864 2.68627 16 4.01427 16H18.3743C19.7103 16 20.7903 14.864 20.7903 13.464L20.7983 5.6H20.8063C21.3343 5.6 21.8223 5.328 22.1183 4.864C22.4463 4.368 22.4863 3.752 22.2463 3.208ZM1.59827 4L2.63027 1.6H8.21427L7.11827 4H2.39827C2.38227 4 2.41427 4 2.39827 4H1.59827ZM4.01427 14.4C3.56627 14.4 3.19827 13.976 3.19827 13.464V5.6H7.14227C7.75027 5.6 8.31827 5.224 8.58227 4.656L9.59827 2.432V14.4H4.01427ZM19.1983 13.464C19.1983 13.984 18.8303 14.4 18.3823 14.4H11.1983V2.736L12.0623 4.648C12.3263 5.224 12.8943 5.6 13.5023 5.6H19.1983V13.464ZM13.5023 4L13.5263 3.992L12.4383 1.6L19.7663 1.608L20.7903 3.872C20.8223 3.936 20.7903 4 20.8143 4H13.5023Z" fill="#323232"/>
</svg>
