<svg width="16" height="14" viewBox="0 0 16 14" fill="none" xmlns="http://www.w3.org/2000/svg">
<path fill-rule="evenodd" clip-rule="evenodd" d="M13.99 14H2.01C0.91 14 0.01 13.11 0 12.01V7C0 6.89 0.02 6.79 0.05 6.68L1.89 1.15C2.14 0.47 2.78 0.01 3.51 0H12.49C13.22 0.01 13.86 0.47 14.11 1.16L15.95 6.69C15.98 6.79 16 6.89 16 7V12.01C15.99 13.11 15.1 14 13.99 14ZM2.01 12H14C14 12 14 12 14 12.01V8H11.46C10.74 9.24 9.43 10 8 10C6.57 10 5.25 9.24 4.54 8H2V12.01C2 12 2 12 2.01 12ZM12.28 2H3.72L2.39 6H5.17C5.29 6 5.41 6.03 5.52 6.07C5.55 6.08 5.59 6.1 5.62 6.12C5.69 6.16 5.76 6.2 5.82 6.26C5.85 6.29 5.88 6.31 5.9 6.34C5.95 6.4 6 6.47 6.04 6.55C6.07 6.57 6.08 6.6 6.1 6.64C6.1 6.65 6.11 6.66 6.12 6.67C6.4 7.47 7.15 8 8 8C8.85 8 9.6 7.47 9.89 6.67C9.89 6.66 9.9 6.65 9.91 6.64C9.93 6.61 9.94 6.58 9.96 6.55C10 6.47 10.04 6.41 10.1 6.34C10.12 6.31 10.15 6.28 10.18 6.26C10.24 6.21 10.31 6.16 10.38 6.12L10.48 6.07C10.59 6.03 10.71 6 10.83 6H13.61L12.28 2Z" fill="#323232"/>
</svg>
