<svg width="22" height="20" viewBox="0 0 22 20" fill="none" xmlns="http://www.w3.org/2000/svg">
<path d="M6.1118 6.87473H8.55637V9.37463C8.55637 9.54039 8.62076 9.69935 8.73537 9.81656C8.84998 9.93376 9.00543 9.99961 9.16752 9.99961H11.6121C11.7742 9.99961 11.9296 9.93376 12.0442 9.81656C12.1588 9.69935 12.2232 9.54039 12.2232 9.37463V6.87473H14.6678C14.8299 6.87473 14.9853 6.80889 15.0999 6.69168C15.2145 6.57447 15.2789 6.41551 15.2789 6.24976V3.74985C15.2789 3.5841 15.2145 3.42513 15.0999 3.30793C14.9853 3.19072 14.8299 3.12488 14.6678 3.12488H12.2232V0.624976C12.2232 0.459222 12.1588 0.300257 12.0442 0.183051C11.9296 0.0658454 11.7742 0 11.6121 0H9.16752C9.00543 0 8.84998 0.0658454 8.73537 0.183051C8.62076 0.300257 8.55637 0.459222 8.55637 0.624976V3.12488H6.1118C5.94972 3.12488 5.79427 3.19072 5.67966 3.30793C5.56505 3.42513 5.50066 3.5841 5.50066 3.74985V6.24976C5.50066 6.41551 5.56505 6.57447 5.67966 6.69168C5.79427 6.80889 5.94972 6.87473 6.1118 6.87473ZM21.7032 13.1366C21.5844 12.971 21.4349 12.8311 21.2631 12.7248C21.0914 12.6186 20.9007 12.548 20.7022 12.5173C20.5037 12.4865 20.3013 12.4962 20.1064 12.5457C19.9116 12.5952 19.7282 12.6836 19.5669 12.8057L14.9959 16.2501H10.389C10.227 16.2501 10.0715 16.1843 9.95689 16.0671C9.84228 15.9499 9.77789 15.7909 9.77789 15.6252C9.77789 15.4594 9.84228 15.3005 9.95689 15.1832C10.0715 15.066 10.227 15.0002 10.389 15.0002H13.3775C13.9887 15.0002 14.5521 14.5756 14.6521 13.9608C14.6817 13.7813 14.6726 13.5973 14.6255 13.4217C14.5784 13.2462 14.4944 13.0832 14.3795 12.9442C14.2645 12.8052 14.1213 12.6935 13.9598 12.6169C13.7983 12.5403 13.6224 12.5007 13.4444 12.5007H7.33294C6.3022 12.5005 5.30269 12.8625 4.50183 13.526L2.72569 15.0002H0.611142C0.449397 15.0013 0.294589 15.0675 0.180216 15.1845C0.0658421 15.3015 0.00110068 15.4598 0 15.6252V19.375C0.00110068 19.5404 0.0658421 19.6987 0.180216 19.8157C0.294589 19.9327 0.449397 19.9989 0.611142 20H13.8653C14.713 19.9979 15.5382 19.7207 16.222 19.2082L21.3797 15.3189C21.7052 15.0731 21.9221 14.7053 21.9827 14.2962C22.0434 13.887 21.9429 13.47 21.7032 13.1366Z" fill="#222222"/>
</svg>
