<svg width="17" height="16" viewBox="0 0 17 16" fill="none" xmlns="http://www.w3.org/2000/svg">
<path fill-rule="evenodd" clip-rule="evenodd" d="M12.0073 13.9925C12.0073 13.9825 4.0073 13.9925 4.0073 13.9925C4.0173 13.9925 4.0073 8.9925 4.0073 8.9925C4.0073 8.4425 3.5573 7.9925 3.0073 7.9925C2.4573 7.9925 2.0073 8.4425 2.0073 8.9925V13.9925C2.0073 15.0925 2.8973 15.9925 4.0073 15.9925H12.0073C13.1073 15.9925 13.9973 15.0925 13.9973 13.9925V8.9925C13.9973 8.4425 13.5473 7.9925 12.9973 7.9925C12.4473 7.9925 11.9973 8.4425 11.9973 8.9925L12.0073 13.9925ZM14.3773 7.7625C14.5773 7.9325 14.8473 8.0225 15.1073 7.9925C15.3773 7.9625 15.6173 7.8325 15.7773 7.6225C16.1273 7.1825 16.0673 6.5425 15.6373 6.1625L8.6873 0.2625C8.2773 -0.0875 7.6773 -0.0875 7.2673 0.2625L0.367297 6.1225C-0.0627028 6.4925 -0.122703 7.1325 0.227297 7.5825C0.387297 7.7925 0.627297 7.9325 0.897297 7.9525C1.1573 7.9825 1.4273 7.9025 1.6273 7.7225L7.9973 2.3325L14.3773 7.7625ZM8.0173 10.9825C9.1173 10.9825 10.0073 10.0825 10.0073 8.9825C10.0073 7.8825 9.1073 6.9925 8.0173 6.9925C6.9173 6.9925 6.0273 7.8825 6.0273 8.9825C6.0273 10.0825 6.9173 10.9825 8.0173 10.9825Z" fill="#323232"/>
</svg>
