<svg width="16" height="16" viewBox="0 0 16 16" fill="none" xmlns="http://www.w3.org/2000/svg">
<path fill-rule="evenodd" clip-rule="evenodd" d="M15.51 6H10.97C10.42 6 10.29 5.69 10.69 5.29L12.23 3.76C11.1 2.64 9.58 2.01 8 2V0C10.12 0.01 12.15 0.85 13.65 2.34L15.3 0.7C15.68 0.31 16 0.45 16 0.99V5.51C16 5.78 15.78 6 15.51 6ZM0 8C0 3.58 3.58 0 8 0V2C4.69 2 2 4.69 2 8C2 11.31 4.69 14 8 14V16C3.58 16 0 12.42 0 8ZM14.01 8.77C14.1 8.29 14.52 7.97 15 8C15.3 8 15.59 8.14 15.78 8.37C15.97 8.61 16.04 8.92 15.98 9.22C15.36 13.13 11.99 16.01 8.04 16H8V14H8.03C11.06 14.01 13.62 11.76 14.01 8.77Z" fill="#323232"/>
</svg>
