<svg width="150" height="225" viewBox="0 0 20 30" fill="none" xmlns="http://www.w3.org/2000/svg">
<path d="M9.26381 0L7.61178 1.69614L7.00819 2.31603L4.59185 4.79814L2.93982 6.49428L2.33623 7.11417L1.08825 8.39636L0 9.51349V20.4037L9.34393 30V20.2688V20.1037L10.9153 18.4899L12.7674 16.5878L14.0154 15.3056L16.3516 12.9063L17.4394 11.7891L19.0909 10.0925L9.26381 0ZM7.00819 24.2079L6.1782 23.3555L4.52617 21.6588L2.6741 19.7567L2.33623 19.4098V13.0719L4.10818 14.8917L5.76021 16.5883L7.00819 17.87V24.2079ZM7.00819 14.4767L2.73978 10.093L4.59185 8.19092L6.24338 6.49428L7.0077 5.70932V14.4767H7.00819ZM14.0159 11.9128L12.7679 13.195L11.1159 14.8912L9.34393 16.711V13.0719V12.9068V9.67856V9.51349V3.47557L12.2837 6.49479L13.9358 8.19143L14.0159 8.27371L15.7878 10.0935L14.0159 11.9128Z" fill="#1A1A1A"/>
</svg>
