<svg width="159" height="18" viewBox="0 0 159 18" fill="none" xmlns="http://www.w3.org/2000/svg">
<path d="M4.85 1.4H0.08V14H2.96V10.04H4.85C7.334 10.04 9.26 8.114 9.26 5.72C9.26 3.326 7.334 1.4 4.85 1.4ZM4.85 7.34H2.96V4.1H4.85C5.732 4.1 6.38 4.802 6.38 5.72C6.38 6.638 5.732 7.34 4.85 7.34ZM14.3823 14.252C17.0283 14.252 19.1523 12.182 19.1523 9.5C19.1523 6.818 17.0283 4.748 14.3823 4.748C11.7363 4.748 9.61227 6.818 9.61227 9.5C9.61227 12.182 11.7363 14.252 14.3823 14.252ZM14.3823 11.624C13.2123 11.624 12.3123 10.778 12.3123 9.5C12.3123 8.222 13.2123 7.376 14.3823 7.376C15.5523 7.376 16.4523 8.222 16.4523 9.5C16.4523 10.778 15.5523 11.624 14.3823 11.624ZM27.2135 1.4V5.846C26.6195 5.162 25.7375 4.748 24.5315 4.748C22.1735 4.748 20.2295 6.818 20.2295 9.5C20.2295 12.182 22.1735 14.252 24.5315 14.252C25.7375 14.252 26.6195 13.838 27.2135 13.154V14H29.9135V1.4H27.2135ZM25.0715 11.696C23.8295 11.696 22.9295 10.85 22.9295 9.5C22.9295 8.15 23.8295 7.304 25.0715 7.304C26.3135 7.304 27.2135 8.15 27.2135 9.5C27.2135 10.85 26.3135 11.696 25.0715 11.696ZM34.3624 7.628C34.3624 7.304 34.6504 7.124 35.1184 7.124C35.7124 7.124 36.0724 7.448 36.3244 7.916L38.6284 6.674C37.8724 5.396 36.5764 4.748 35.1184 4.748C33.2464 4.748 31.5904 5.738 31.5904 7.7C31.5904 10.814 36.0184 10.292 36.0184 11.282C36.0184 11.642 35.6944 11.84 35.0464 11.84C34.2544 11.84 33.7504 11.462 33.5164 10.778L31.1764 12.11C31.8784 13.568 33.2464 14.252 35.0464 14.252C36.9904 14.252 38.7904 13.37 38.7904 11.3C38.7904 7.97 34.3624 8.654 34.3624 7.628ZM44.3705 14.252C47.0165 14.252 49.1405 12.182 49.1405 9.5C49.1405 6.818 47.0165 4.748 44.3705 4.748C41.7245 4.748 39.6005 6.818 39.6005 9.5C39.6005 12.182 41.7245 14.252 44.3705 14.252ZM44.3705 11.624C43.2005 11.624 42.3005 10.778 42.3005 9.5C42.3005 8.222 43.2005 7.376 44.3705 7.376C45.5405 7.376 46.4405 8.222 46.4405 9.5C46.4405 10.778 45.5405 11.624 44.3705 11.624ZM50.6677 14H53.3677V0.86H50.6677V14ZM61.1575 5V9.914C61.1575 11.192 60.4735 11.768 59.4835 11.768C58.6195 11.768 57.9175 11.246 57.9175 10.13V5H55.2175V10.526C55.2175 12.956 56.7655 14.252 58.5835 14.252C59.7715 14.252 60.6715 13.82 61.1575 13.154V14H63.8575V5H61.1575ZM71.1117 7.592V5H69.2577V2.48L66.5577 3.29V5H65.1177V7.592H66.5577V10.778C66.5577 13.298 67.5837 14.36 71.1117 14V11.552C69.9237 11.624 69.2577 11.552 69.2577 10.778V7.592H71.1117ZM73.9904 4.208C74.8724 4.208 75.6104 3.47 75.6104 2.588C75.6104 1.706 74.8724 0.967999 73.9904 0.967999C73.1084 0.967999 72.3704 1.706 72.3704 2.588C72.3704 3.47 73.1084 4.208 73.9904 4.208ZM72.6404 14H75.3404V5H72.6404V14ZM81.6362 14.252C84.2822 14.252 86.4062 12.182 86.4062 9.5C86.4062 6.818 84.2822 4.748 81.6362 4.748C78.9902 4.748 76.8662 6.818 76.8662 9.5C76.8662 12.182 78.9902 14.252 81.6362 14.252ZM81.6362 11.624C80.4662 11.624 79.5662 10.778 79.5662 9.5C79.5662 8.222 80.4662 7.376 81.6362 7.376C82.8062 7.376 83.7062 8.222 83.7062 9.5C83.7062 10.778 82.8062 11.624 81.6362 11.624ZM93.2074 4.748C92.0194 4.748 91.1194 5.18 90.6334 5.846V5H87.9334V14H90.6334V9.086C90.6334 7.808 91.3174 7.232 92.3074 7.232C93.1714 7.232 93.8734 7.754 93.8734 8.87V14H96.5734V8.474C96.5734 6.044 95.0254 4.748 93.2074 4.748Z" fill="#323232"/>
<path d="M100.984 7.628C100.984 7.304 101.272 7.124 101.74 7.124C102.334 7.124 102.694 7.448 102.946 7.916L105.25 6.674C104.494 5.396 103.198 4.748 101.74 4.748C99.8675 4.748 98.2115 5.738 98.2115 7.7C98.2115 10.814 102.64 10.292 102.64 11.282C102.64 11.642 102.316 11.84 101.668 11.84C100.876 11.84 100.372 11.462 100.138 10.778L97.7975 12.11C98.4995 13.568 99.8675 14.252 101.668 14.252C103.612 14.252 105.412 13.37 105.412 11.3C105.412 7.97 100.984 8.654 100.984 7.628ZM112.034 4.748C110.846 4.748 109.946 5.18 109.46 5.846V1.4H106.76V14H109.46V9.086C109.46 7.808 110.144 7.232 111.134 7.232C111.998 7.232 112.7 7.754 112.7 8.87V14H115.4V8.474C115.4 6.044 113.852 4.748 112.034 4.748ZM121.574 14.252C124.22 14.252 126.344 12.182 126.344 9.5C126.344 6.818 124.22 4.748 121.574 4.748C118.928 4.748 116.804 6.818 116.804 9.5C116.804 12.182 118.928 14.252 121.574 14.252ZM121.574 11.624C120.404 11.624 119.504 10.778 119.504 9.5C119.504 8.222 120.404 7.376 121.574 7.376C122.744 7.376 123.644 8.222 123.644 9.5C123.644 10.778 122.744 11.624 121.574 11.624ZM133.253 4.748C132.047 4.748 131.165 5.162 130.571 5.846V5H127.871V17.6H130.571V13.154C131.165 13.838 132.047 14.252 133.253 14.252C135.611 14.252 137.555 12.182 137.555 9.5C137.555 6.818 135.611 4.748 133.253 4.748ZM132.713 11.696C131.471 11.696 130.571 10.85 130.571 9.5C130.571 8.15 131.471 7.304 132.713 7.304C133.955 7.304 134.855 8.15 134.855 9.5C134.855 10.85 133.955 11.696 132.713 11.696ZM140.436 4.208C141.318 4.208 142.056 3.47 142.056 2.588C142.056 1.706 141.318 0.967999 140.436 0.967999C139.554 0.967999 138.816 1.706 138.816 2.588C138.816 3.47 139.554 4.208 140.436 4.208ZM139.086 14H141.786V5H139.086V14ZM148.711 3.74V1.148C145.723 0.967999 144.337 2.48 144.337 5H143.131V7.592H144.337V14H147.037V7.592H148.711V5H147.037C147.037 3.956 147.703 3.65 148.711 3.74ZM155.724 5L154.032 10.508L152.034 5H149.064L152.646 13.586C152.25 14.684 151.656 15.08 150.396 15.08V17.6C152.916 17.726 154.518 16.592 155.526 13.73L158.604 5H155.724Z" fill="#4264D0"/>
</svg>
