<svg width="16" height="16" viewBox="0 0 16 16" fill="none" xmlns="http://www.w3.org/2000/svg">
<path fill-rule="evenodd" clip-rule="evenodd" d="M15.96 10.18L15.17 12.09C15.06 12.35 14.76 12.47 14.51 12.37L13.61 12C13.2 11.83 12.6 11.95 12.29 12.26C11.95 12.6 11.83 13.19 12 13.61L12.37 14.51C12.48 14.77 12.36 15.07 12.09 15.18L10.18 15.97C9.92 16.08 9.62 15.95 9.52 15.69L9.14999 14.79C8.97999 14.38 8.46999 14.04 8.02999 14.04C7.54 14.04 7.04 14.37 6.87 14.79L6.5 15.69C6.39 15.95 6.1 16.08 5.83 15.97L3.92 15.18C3.66 15.07 3.53 14.77 3.64 14.51L4.01 13.61C4.18 13.2 4.06 12.6 3.75 12.29C3.4 11.94 2.81 11.83 2.4 12L1.5 12.37C1.24 12.48 0.949995 12.36 0.839995 12.09L0.0499954 10.18C-0.0600046 9.91999 0.0699954 9.61999 0.329995 9.50999L1.23 9.13999C1.64 8.96999 1.98 8.45999 1.98 8.01999C1.98 7.53999 1.65 7.03999 1.23 6.85999L0.329995 6.47999C0.0699954 6.36999 -0.0600046 6.07999 0.0499954 5.80999L0.839995 3.89999C0.939995 3.64999 1.24 3.52999 1.5 3.62999L2.4 3.99999C2.81 4.16999 3.41 4.04999 3.72 3.73999C4.06 3.39999 4.18 2.80999 4.01 2.39999L3.64 1.49999C3.53 1.23999 3.65 0.939986 3.91 0.829986L5.82 0.0399856C6.08 -0.0700144 6.38 0.0599856 6.48 0.319986L6.85 1.21999C7.02 1.62999 7.52999 1.96999 7.97 1.96999C8.46 1.96999 8.96 1.63999 9.13 1.21999L9.5 0.319986C9.60999 0.0599856 9.89999 -0.0700144 10.17 0.0399856L12.08 0.829986C12.34 0.939986 12.47 1.23999 12.36 1.49999L12 2.38999C11.83 2.80999 11.95 3.39999 12.26 3.71999C12.6 4.05999 13.19 4.17999 13.61 3.99999L14.51 3.62999C14.77 3.51999 15.06 3.63999 15.17 3.90999L15.96 5.81999C16.07 6.07999 15.94 6.37999 15.68 6.48999L14.78 6.85999C14.37 7.02999 14.03 7.53999 14.03 7.97999C14.03 8.45999 14.36 8.95999 14.78 9.13999L15.68 9.50999C15.95 9.61999 16.07 9.90999 15.96 10.18ZM8 3.99999C5.79 3.99999 4 5.78999 4 7.99999C4 10.21 5.79 12 8 12C10.21 12 12 10.21 12 7.99999C12 6.93999 11.58 5.91999 10.83 5.16999C10.08 4.41999 9.06 3.99999 8 3.99999ZM8 9.99999C6.89 9.99999 6 9.09999 6 7.99999C6 6.89999 6.9 5.99999 8 5.99999C9.1 5.99999 10 6.89999 10 7.99999C10 8.52999 9.79 9.03999 9.41 9.40999C9.04 9.78999 8.52999 9.99999 8 9.99999Z" fill="#323232"/>
</svg>
