<svg width="21" height="16" viewBox="0 0 21 16" fill="none" xmlns="http://www.w3.org/2000/svg">
<path d="M0.727273 4.94545C1.12727 4.94545 1.45455 4.61818 1.45455 4.21818V1.45455H4.36364C4.76364 1.45455 5.09091 1.12727 5.09091 0.727273C5.09091 0.327273 4.76364 0 4.36364 0H1.36727C0.610909 0 0 0.618182 0 1.38182V4.21818C0 4.62545 0.327273 4.94545 0.727273 4.94545Z" fill="#323232"/>
<path d="M18.9963 0H16C15.6 0 15.2727 0.327273 15.2727 0.727273C15.2727 1.12727 15.6 1.45455 16 1.45455H18.9091V4.36364C18.9091 4.76364 19.2363 5.09091 19.6363 5.09091C20.0363 5.09091 20.3636 4.76364 20.3636 4.36364V1.38182C20.3636 0.618182 19.7527 0 18.9963 0Z" fill="#323232"/>
<path d="M4.36364 14.5455H1.45455V11.5855C1.45455 11.1855 1.12727 10.8582 0.727273 10.8582C0.327273 10.8582 0 11.1855 0 11.5855V14.6182C0 15.3818 0.610909 16 1.36727 16H4.36364C4.76364 16 5.09091 15.6727 5.09091 15.2727C5.09091 14.8727 4.76364 14.5455 4.36364 14.5455Z" fill="#323232"/>
<path d="M19.6363 10.9091C19.2363 10.9091 18.9091 11.2363 18.9091 11.6363V14.5454H16C15.6 14.5454 15.2727 14.8727 15.2727 15.2727C15.2727 15.6727 15.6 16 16 16H18.9963C19.7527 16 20.3636 15.3818 20.3636 14.6181V11.6363C20.3636 11.2363 20.0363 10.9091 19.6363 10.9091Z" fill="#323232"/>
<path d="M5.81822 2.18182C5.41822 2.18182 5.09094 2.5091 5.09094 2.9091V10.1818C5.09094 10.5818 5.41822 10.9091 5.81822 10.9091C6.21822 10.9091 6.54549 10.5818 6.54549 10.1818V2.9091C6.54549 2.5091 6.21822 2.18182 5.81822 2.18182Z" fill="#323232"/>
<path d="M6.33458 12.5746C6.06549 12.3055 5.57094 12.3055 5.30185 12.5746C5.2364 12.6473 5.18549 12.7273 5.14912 12.8146C5.11276 12.9018 5.09094 12.9964 5.09094 13.0909C5.09094 13.1855 5.11276 13.28 5.14912 13.3673C5.18549 13.4546 5.2364 13.5346 5.30185 13.6073C5.37458 13.6727 5.45458 13.7237 5.54185 13.76C5.62912 13.7964 5.72367 13.8182 5.81822 13.8182C5.91276 13.8182 6.00731 13.7964 6.09458 13.76C6.18185 13.7237 6.26185 13.6727 6.33458 13.6073C6.47276 13.4691 6.54549 13.2873 6.54549 13.0909C6.54549 12.9964 6.52367 12.9018 6.48731 12.8146C6.45094 12.72 6.40003 12.6473 6.33458 12.5746Z" fill="#323232"/>
<path d="M7.99998 2.18182C7.59998 2.18182 7.27271 2.5091 7.27271 2.9091V10.1818C7.27271 10.5818 7.59998 10.9091 7.99998 10.9091C8.39998 10.9091 8.72725 10.5818 8.72725 10.1818V2.9091C8.72725 2.5091 8.39998 2.18182 7.99998 2.18182Z" fill="#323232"/>
<path d="M10.1819 2.18182C9.78186 2.18182 9.45459 2.5091 9.45459 2.9091V13.0909C9.45459 13.4909 9.78186 13.8182 10.1819 13.8182C10.5819 13.8182 10.9091 13.4909 10.9091 13.0909V2.9091C10.9091 2.5091 10.5819 2.18182 10.1819 2.18182Z" fill="#323232"/>
<path d="M12.3636 2.18182C11.9636 2.18182 11.6364 2.5091 11.6364 2.9091V10.1818C11.6364 10.5818 11.9636 10.9091 12.3636 10.9091C12.7636 10.9091 13.0909 10.5818 13.0909 10.1818V2.9091C13.0909 2.5091 12.7636 2.18182 12.3636 2.18182Z" fill="#323232"/>
<path d="M15.2728 2.9091C15.2728 2.5091 14.9455 2.18182 14.5455 2.18182C14.1455 2.18182 13.8182 2.5091 13.8182 2.9091V13.0909C13.8182 13.4909 14.1455 13.8182 14.5455 13.8182C14.9455 13.8182 15.2728 13.4909 15.2728 13.0909V2.9091Z" fill="#323232"/>
<path d="M12.88 12.5745C12.8073 12.5091 12.7273 12.4581 12.64 12.4218C12.3709 12.3054 12.0509 12.3709 11.8473 12.5745C11.7818 12.6472 11.7309 12.72 11.6945 12.8145C11.6582 12.9018 11.6364 12.9963 11.6364 13.0909C11.6364 13.2872 11.7091 13.4691 11.8473 13.6072C11.92 13.6727 12 13.7236 12.0873 13.76C12.1745 13.7963 12.2691 13.8181 12.3636 13.8181C12.56 13.8181 12.7418 13.7454 12.88 13.6072C12.9454 13.5345 12.9964 13.4545 13.0327 13.3672C13.0691 13.28 13.0909 13.1854 13.0909 13.0909C13.0909 12.9963 13.0691 12.9018 13.0327 12.8145C12.9964 12.7272 12.9454 12.6472 12.88 12.5745Z" fill="#323232"/>
<path d="M8.51634 12.5745C8.31271 12.3709 7.98543 12.3054 7.72361 12.4218C7.63634 12.4581 7.55634 12.5091 7.48361 12.5745C7.41816 12.6472 7.36725 12.72 7.33089 12.8145C7.29452 12.9018 7.27271 12.9963 7.27271 13.0909C7.27271 13.1854 7.29452 13.28 7.33089 13.3672C7.36725 13.4545 7.41816 13.5345 7.48361 13.6072C7.55634 13.6727 7.63634 13.7236 7.72361 13.76C7.81089 13.7963 7.90543 13.8181 7.99998 13.8181C8.09452 13.8181 8.18907 13.7963 8.27634 13.76C8.36361 13.7236 8.44361 13.6727 8.51634 13.6072C8.65452 13.4691 8.72725 13.2872 8.72725 13.0909C8.72725 12.9963 8.71271 12.9018 8.66907 12.8145C8.63271 12.7272 8.5818 12.6472 8.51634 12.5745Z" fill="#323232"/>
<path d="M17.4545 13.0909V2.9091C17.4545 2.5091 17.1273 2.18182 16.7273 2.18182C16.3273 2.18182 16 2.5091 16 2.9091V13.0909C16 13.4909 16.3273 13.8182 16.7273 13.8182C17.1273 13.8182 17.4545 13.4909 17.4545 13.0909Z" fill="#323232"/>
<path d="M2.90906 2.9091V13.0909C2.90906 13.4909 3.23633 13.8182 3.63633 13.8182C4.03633 13.8182 4.3636 13.4909 4.3636 13.0909V2.9091C4.3636 2.5091 4.03633 2.18182 3.63633 2.18182C3.23633 2.18182 2.90906 2.5091 2.90906 2.9091Z" fill="#323232"/>
</svg>
